# xmcd CD database file
#
# Track frame offsets:
#	150
#	21654
#	41563
#	60425
#	77285
#	94195
#	113842
#	134881
#	154037
#	174517
#	192317
#	210501
#	230823
#
# Disc length: 3308 seconds
#
# Revision: 0
# Processed by: cddbd v1.5.2PL0 Copyright (c) Steve Scherf et al.
# Submitted via: CDex 1.70beta2
#
DISCID=b00cea0d
DTITLE=Amparo Sanchez - Alma de Cantaora
DYEAR=2012
DGENRE=Salsa
TTITLE0=Alma de Cantaora
TTITLE1=La cuenta atras
TTITLE2=Pulpa de tamarindo
TTITLE3=Vieja pasion
TTITLE4=Para ti
TTITLE5=La flor de la palabra
TTITLE6=Vueltas
TTITLE7=Muchacho
TTITLE8=Fuera fiera
TTITLE9=Mujer levantate
TTITLE10=Free day
TTITLE11=Que te pedi
TTITLE12=Alma reggae version
EXTD=YEAR: 2012
EXTT0=
EXTT1=
EXTT2=
EXTT3=
EXTT4=
EXTT5=
EXTT6=
EXTT7=
EXTT8=
EXTT9=
EXTT10=
EXTT11=
EXTT12=
PLAYORDER=
